<?xml version="1.0" standalone="no"?>
<!DOCTYPE svg PUBLIC "-//W3C//DTD SVG 20010904//EN"
 "http://www.w3.org/TR/2001/REC-SVG-20010904/DTD/svg10.dtd">
<svg version="1.0" xmlns="http://www.w3.org/2000/svg"
 width="684.000000pt" height="328.000000pt" viewBox="0 0 684.000000 328.000000"
 preserveAspectRatio="xMidYMid meet">

<g transform="translate(0.000000,328.000000) scale(0.100000,-0.100000)"
fill="#000000" stroke="none">
<path d="M2590 1615 l0 -1435 30 0 30 0 0 1435 0 1435 -30 0 -30 0 0 -1435z"/>
<path d="M3030 3024 c0 -9 -219 -1357 -224 -1376 -4 -16 6 -18 99 -18 l102 0
18 118 c9 64 19 125 21 135 5 15 20 17 130 17 68 0 124 -2 124 -5 0 -10 31
-221 35 -242 5 -22 9 -23 115 -23 109 0 110 0 105 23 -3 12 -52 315 -110 672
-58 358 -108 662 -111 678 l-6 27 -149 0 c-82 0 -149 -3 -149 -6z m240 -921
c0 -10 -26 -13 -98 -13 l-98 0 47 343 c27 188 49 344 50 347 1 5 98 -656 99
-677z"/>
<path d="M3710 2330 l0 -702 223 4 c220 3 223 3 279 31 69 34 109 77 139 154
24 58 24 58 24 513 0 455 0 455 -24 513 -30 77 -70 120 -139 154 -56 28 -59
28 -279 31 l-223 4 0 -702z m411 474 c12 -12 25 -41 30 -65 4 -24 8 -208 8
-409 0 -201 -4 -385 -8 -409 -14 -70 -37 -85 -136 -90 l-85 -3 0 502 0 502 85
-3 c70 -3 88 -8 106 -25z"/>
<path d="M4570 2330 l0 -700 290 0 290 0 0 100 0 100 -180 0 -180 0 0 600 0
600 -110 0 -110 0 0 -700z"/>
<path d="M5310 2330 l0 -700 300 0 300 0 0 100 0 100 -190 0 -190 0 0 215 0
215 150 0 150 0 0 100 0 100 -150 0 -150 0 0 185 0 185 190 0 190 0 0 100 0
100 -300 0 -300 0 0 -700z"/>
<path d="M6090 2331 l0 -701 110 0 110 0 0 300 0 300 63 0 c72 0 121 -24 139
-68 6 -15 14 -133 18 -277 4 -137 8 -251 9 -252 0 -2 52 -3 115 -3 l115 0 -10
32 c-5 18 -9 109 -9 203 0 309 -22 401 -108 456 -25 16 -41 29 -34 29 7 0 30
16 52 36 62 57 80 117 80 278 0 155 -14 213 -64 273 -20 23 -58 50 -88 64 -50
22 -67 24 -275 27 l-223 4 0 -701z m379 485 c15 -8 32 -26 39 -41 15 -32 16
-243 2 -279 -16 -42 -66 -66 -137 -66 l-63 0 0 200 0 200 65 0 c38 0 78 -6 94
-14z"/>
<path d="M2030 2907 c-219 -163 -878 -696 -884 -714 -3 -10 -35 -160 -70 -333
-61 -297 -79 -384 -91 -437 -5 -20 -12 -23 -58 -23 -81 0 -229 -35 -302 -71
-72 -35 -131 -93 -140 -136 -3 -16 -10 -44 -15 -64 -14 -52 -13 -67 11 -116
23 -48 39 -56 39 -19 0 31 33 72 65 80 32 8 145 -16 285 -60 103 -32 120 -42
191 -101 44 -37 79 -69 79 -73 0 -4 -14 -52 -30 -106 -22 -72 -30 -114 -28
-157 3 -53 0 -61 -22 -78 -23 -17 -34 -18 -122 -9 -92 9 -101 8 -165 -16 -37
-14 -74 -32 -81 -41 -14 -19 -16 -69 -3 -77 5 -4 7 3 4 13 -4 14 3 24 25 35
33 17 52 7 27 -14 -8 -7 -14 -27 -14 -44 1 -17 3 -23 6 -14 7 27 38 21 54 -10
l13 -27 4 32 c3 32 59 93 85 93 42 0 95 -76 77 -111 -11 -20 -11 -20 14 -4 33
22 42 52 22 74 -21 23 -21 61 0 61 18 0 56 -19 65 -33 5 -6 19 -6 40 1 l34 11
-24 -17 c-54 -37 -60 -47 -66 -102 -6 -52 -5 -54 9 -30 10 16 15 20 16 9 0 -8
7 -24 15 -35 15 -18 15 -18 10 7 -5 20 -1 27 19 37 18 8 26 19 26 37 0 18 7
26 25 31 34 8 45 -4 21 -22 -15 -10 -44 -69 -46 -91 0 -1 19 9 42 21 24 12 43
29 44 37 2 34 5 39 22 39 21 0 42 -18 42 -37 0 -7 -9 -22 -20 -33 -18 -18 -18
-20 -2 -20 39 1 54 25 50 82 -3 49 -1 53 20 56 13 2 32 -4 42 -13 17 -15 19
-15 25 4 8 25 14 26 42 6 21 -15 22 -14 25 17 3 29 6 33 28 30 22 -2 26 1 25
25 0 23 5 29 28 31 21 3 27 8 23 19 -3 8 -9 26 -12 39 -6 22 -3 24 26 24 l31
0 -31 55 c-24 42 -28 55 -16 55 14 0 42 -18 239 -153 38 -26 79 -47 92 -47 31
0 75 17 75 29 0 5 -52 37 -115 71 -63 34 -115 63 -115 65 0 3 44 -16 98 -41
53 -26 120 -57 149 -71 40 -18 57 -22 71 -14 44 24 32 37 -90 97 -66 32 -122
63 -125 67 -6 9 23 -3 175 -74 108 -51 115 -53 140 -38 54 30 37 46 -115 112
-78 34 -140 63 -139 65 2 1 78 -27 169 -63 155 -63 167 -66 194 -53 15 7 29
22 31 33 2 18 -14 26 -123 64 -69 24 -124 45 -122 47 2 2 67 -17 144 -41 121
-39 145 -44 167 -34 24 11 44 44 33 55 -3 3 -69 23 -148 44 -177 47 -163 51
26 6 130 -31 142 -32 167 -18 24 14 48 50 48 72 0 5 -19 11 -42 14 -487 64
-701 106 -767 152 l-24 17 22 9 c13 4 25 16 28 26 2 10 14 22 26 27 12 6 22
15 22 21 0 6 14 22 30 36 66 57 9 34 -141 -58 -233 -141 -230 -137 28 39 116
79 159 114 164 133 4 14 2 30 -3 35 -9 9 -107 -46 -323 -179 -70 -43 14 18
163 118 166 113 185 133 152 160 -13 11 -80 -24 -291 -155 -74 -47 6 12 149
109 86 59 157 113 157 121 0 21 -11 45 -21 45 -7 0 -61 -32 -301 -177 -5 -2
-8 -2 -8 1 0 3 17 15 38 28 20 13 99 65 175 116 111 76 137 98 137 117 0 14
-7 25 -17 27 -10 2 -81 -34 -158 -80 -219 -132 -212 -123 43 48 175 118 262
193 262 225 0 8 -2 15 -5 15 -2 0 -87 -50 -187 -111 -312 -189 -323 -193 -73
-24 334 226 336 229 356 267 20 39 25 88 10 88 -5 0 -89 -50 -188 -111 -175
-110 -327 -204 -381 -235 l-27 -16 25 19 c13 10 164 116 335 235 287 201 311
221 323 257 29 88 18 84 -328 -137 -308 -197 -435 -275 -380 -235 13 10 169
121 345 247 176 126 330 236 342 245 29 21 55 75 51 107 -3 27 14 37 -593
-360 -289 -190 -274 -177 180 154 198 145 370 272 383 283 23 22 44 80 36 102
-4 9 -139 -77 -412 -259 -413 -276 -445 -297 -427 -279 7 7 772 582 822 618 9
6 12 62 4 74 -8 13 -258 -152 -801 -527 -127 -88 -30 -10 365 293 429 330 422
323 405 399 -8 37 -18 56 -28 56 -4 0 -63 -42 -132 -93z m-890 -1557 c11 -6
-4 -17 -60 -42 l-74 -34 32 -23 c38 -27 40 -44 7 -59 -29 -13 -31 -24 -9 -57
15 -23 15 -24 -21 -39 l-37 -16 22 -35 c12 -19 19 -35 15 -35 -4 0 -53 16
-108 35 -96 32 -249 65 -305 65 -14 0 -34 8 -45 17 -18 17 -18 18 32 33 39 11
57 23 72 48 l21 32 -25 0 c-39 0 -79 -18 -114 -53 -47 -44 -44 -9 3 43 44 49
136 94 229 114 79 16 342 21 365 6z m-614 -224 c19 -15 19 -15 0 -29 -13 -9
-20 -27 -20 -50 -1 -31 -3 -34 -15 -22 -14 14 -19 84 -7 104 9 15 18 14 42 -3z
m1591 -282 c-3 -3 -12 -4 -19 -1 -8 3 -5 6 6 6 11 1 17 -2 13 -5z m-796 -46
c8 -19 14 -68 14 -113 0 -98 -28 -162 -94 -212 -54 -42 -73 -43 -26 -1 55 47
75 95 75 177 0 57 -5 79 -29 125 l-30 56 38 0 c34 0 40 -4 52 -32z m524 -106
c-3 -3 -11 0 -18 7 -9 10 -8 11 6 5 10 -3 15 -9 12 -12z"/>
<path d="M122 1993 c28 -102 96 -180 186 -213 144 -54 288 -146 356 -227 31
-37 66 -103 66 -125 0 -10 4 -18 8 -18 16 0 205 29 207 32 2 2 15 61 29 132
l26 130 -32 34 c-74 77 -203 119 -462 152 -240 31 -313 53 -368 112 l-27 29
11 -38z"/>
<path d="M6337 1590 c-156 -40 -235 -168 -225 -366 5 -84 10 -103 43 -172 33
-66 58 -97 181 -220 174 -173 198 -211 199 -324 0 -62 -4 -82 -21 -105 -26
-35 -73 -49 -121 -37 -56 14 -75 49 -81 144 l-5 80 -105 0 -105 0 7 -89 c8
-113 28 -179 69 -233 101 -132 365 -146 490 -25 108 105 128 327 45 497 -25
53 -59 93 -177 210 -169 167 -201 217 -201 312 0 71 19 111 60 128 37 15 95 7
121 -16 24 -21 39 -75 39 -136 l0 -48 106 0 105 0 -6 83 c-18 215 -110 315
-296 323 -46 2 -101 -1 -122 -6z"/>
<path d="M2870 880 l0 -700 100 0 100 0 2 505 3 505 130 -505 130 -505 113 0
112 0 0 700 0 700 -95 0 -95 0 -1 -417 c0 -262 -4 -411 -10 -398 -7 17 -209
797 -209 810 0 3 -63 5 -140 5 l-140 0 0 -700z"/>
<path d="M3770 880 l0 -700 300 0 300 0 0 100 0 100 -190 0 -190 0 0 215 0
215 150 0 150 0 0 100 0 100 -150 0 -150 0 0 185 0 185 190 0 190 0 0 100 0
100 -300 0 -300 0 0 -700z"/>
<path d="M4547 1228 c30 -194 77 -508 106 -698 l52 -345 148 -3 c81 -1 147 1
147 5 0 11 200 1333 206 1366 l6 27 -101 0 c-86 0 -100 -2 -104 -17 -3 -10
-36 -253 -74 -541 -39 -302 -71 -513 -75 -500 -3 13 -37 256 -74 541 l-68 517
-111 0 -111 0 53 -352z"/>
<path d="M5360 880 l0 -700 300 0 300 0 0 100 0 100 -190 0 -190 0 0 215 0
215 150 0 150 0 0 100 0 100 -150 0 -150 0 0 185 0 185 190 0 190 0 0 100 0
100 -300 0 -300 0 0 -700z"/>
</g>
</svg>
